<mxfile host="app.diagrams.net" modified="2023-12-05T19:15:01.033Z" agent="Mozilla/5.0 (Windows NT 10.0; Win64; x64) AppleWebKit/537.36 (KHTML, like Gecko) Chrome/119.0.0.0 Safari/537.36" etag="APmk02_qbLP2xSeknVQF" version="22.1.5" type="device">
  <diagram name="Page-1" id="2YBvvXClWsGukQMizWep">
    <mxGraphModel dx="1443" dy="623" grid="1" gridSize="10" guides="1" tooltips="1" connect="1" arrows="1" fold="1" page="1" pageScale="1" pageWidth="850" pageHeight="1100" math="0" shadow="0">
      <root>
        <mxCell id="0" />
        <mxCell id="1" parent="0" />
        <mxCell id="Tz1P8lq4zvduLCiZaMkm-19" value="" style="html=1;points=[];perimeter=orthogonalPerimeter;outlineConnect=0;targetShapes=umlLifeline;portConstraint=eastwest;newEdgeStyle={&quot;edgeStyle&quot;:&quot;elbowEdgeStyle&quot;,&quot;elbow&quot;:&quot;vertical&quot;,&quot;curved&quot;:0,&quot;rounded&quot;:0};" vertex="1" parent="1">
          <mxGeometry x="-95" y="110" width="10" height="490" as="geometry" />
        </mxCell>
        <mxCell id="Tz1P8lq4zvduLCiZaMkm-1" value="CKB platform" style="shape=umlLifeline;perimeter=lifelinePerimeter;whiteSpace=wrap;html=1;container=0;dropTarget=0;collapsible=0;recursiveResize=0;outlineConnect=0;portConstraint=eastwest;newEdgeStyle={&quot;edgeStyle&quot;:&quot;elbowEdgeStyle&quot;,&quot;elbow&quot;:&quot;vertical&quot;,&quot;curved&quot;:0,&quot;rounded&quot;:0};" vertex="1" parent="1">
          <mxGeometry x="80" y="40" width="100" height="570" as="geometry" />
        </mxCell>
        <mxCell id="Tz1P8lq4zvduLCiZaMkm-2" value="" style="html=1;points=[];perimeter=orthogonalPerimeter;outlineConnect=0;targetShapes=umlLifeline;portConstraint=eastwest;newEdgeStyle={&quot;edgeStyle&quot;:&quot;elbowEdgeStyle&quot;,&quot;elbow&quot;:&quot;vertical&quot;,&quot;curved&quot;:0,&quot;rounded&quot;:0};" vertex="1" parent="Tz1P8lq4zvduLCiZaMkm-1">
          <mxGeometry x="45" y="70" width="10" height="30" as="geometry" />
        </mxCell>
        <mxCell id="Tz1P8lq4zvduLCiZaMkm-3" value="" style="html=1;points=[];perimeter=orthogonalPerimeter;outlineConnect=0;targetShapes=umlLifeline;portConstraint=eastwest;newEdgeStyle={&quot;edgeStyle&quot;:&quot;elbowEdgeStyle&quot;,&quot;elbow&quot;:&quot;vertical&quot;,&quot;curved&quot;:0,&quot;rounded&quot;:0};" vertex="1" parent="Tz1P8lq4zvduLCiZaMkm-1">
          <mxGeometry x="45" y="320" width="10" height="80" as="geometry" />
        </mxCell>
        <mxCell id="Tz1P8lq4zvduLCiZaMkm-4" value="" style="html=1;points=[[0,0,0,0,5],[0,1,0,0,-5],[1,0,0,0,5],[1,1,0,0,-5]];perimeter=orthogonalPerimeter;outlineConnect=0;targetShapes=umlLifeline;portConstraint=eastwest;newEdgeStyle={&quot;curved&quot;:0,&quot;rounded&quot;:0};" vertex="1" parent="Tz1P8lq4zvduLCiZaMkm-1">
          <mxGeometry x="50" y="345" width="10" height="25" as="geometry" />
        </mxCell>
        <mxCell id="Tz1P8lq4zvduLCiZaMkm-5" value="&lt;font size=&quot;1&quot;&gt;9 : checkIfAllBattleClosed() &lt;br&gt;&lt;span style=&quot;white-space: pre;&quot;&gt;&#x9;&lt;/span&gt;-&amp;gt;result&lt;br&gt;&lt;/font&gt;" style="html=1;align=left;spacingLeft=2;endArrow=block;rounded=0;edgeStyle=orthogonalEdgeStyle;curved=0;rounded=0;" edge="1" parent="Tz1P8lq4zvduLCiZaMkm-1" target="Tz1P8lq4zvduLCiZaMkm-4">
          <mxGeometry relative="1" as="geometry">
            <mxPoint x="55" y="330" as="sourcePoint" />
            <Array as="points">
              <mxPoint x="80" y="330" />
              <mxPoint x="80" y="345" />
            </Array>
          </mxGeometry>
        </mxCell>
        <mxCell id="Tz1P8lq4zvduLCiZaMkm-22" value="&lt;font style=&quot;font-size: 9px;&quot;&gt;8 : click(closeButton, tournamentId)&lt;/font&gt;" style="html=1;verticalAlign=bottom;endArrow=block;edgeStyle=elbowEdgeStyle;elbow=vertical;curved=0;rounded=0;" edge="1" parent="Tz1P8lq4zvduLCiZaMkm-1" target="Tz1P8lq4zvduLCiZaMkm-3">
          <mxGeometry relative="1" as="geometry">
            <mxPoint x="-165" y="350" as="sourcePoint" />
            <Array as="points">
              <mxPoint x="-50" y="320" />
            </Array>
            <mxPoint x="10" y="380" as="targetPoint" />
          </mxGeometry>
        </mxCell>
        <mxCell id="Tz1P8lq4zvduLCiZaMkm-10" value="" style="html=1;points=[];perimeter=orthogonalPerimeter;outlineConnect=0;targetShapes=umlLifeline;portConstraint=eastwest;newEdgeStyle={&quot;edgeStyle&quot;:&quot;elbowEdgeStyle&quot;,&quot;elbow&quot;:&quot;vertical&quot;,&quot;curved&quot;:0,&quot;rounded&quot;:0};" vertex="1" parent="Tz1P8lq4zvduLCiZaMkm-1">
          <mxGeometry x="45" y="470" width="10" height="30" as="geometry" />
        </mxCell>
        <mxCell id="Tz1P8lq4zvduLCiZaMkm-65" value="" style="html=1;points=[];perimeter=orthogonalPerimeter;outlineConnect=0;targetShapes=umlLifeline;portConstraint=eastwest;newEdgeStyle={&quot;edgeStyle&quot;:&quot;elbowEdgeStyle&quot;,&quot;elbow&quot;:&quot;vertical&quot;,&quot;curved&quot;:0,&quot;rounded&quot;:0};" vertex="1" parent="Tz1P8lq4zvduLCiZaMkm-1">
          <mxGeometry x="45" y="200" width="10" height="20" as="geometry" />
        </mxCell>
        <mxCell id="Tz1P8lq4zvduLCiZaMkm-78" value="&lt;font style=&quot;font-size: 9px;&quot;&gt;15 : showPage(tournamentPage)&lt;/font&gt;" style="html=1;verticalAlign=bottom;endArrow=openThin;dashed=1;endSize=8;edgeStyle=elbowEdgeStyle;elbow=vertical;curved=0;rounded=0;endFill=0;" edge="1" parent="Tz1P8lq4zvduLCiZaMkm-1">
          <mxGeometry relative="1" as="geometry">
            <mxPoint x="-165" y="540" as="targetPoint" />
            <Array as="points">
              <mxPoint x="-65" y="540" />
            </Array>
            <mxPoint x="45" y="540" as="sourcePoint" />
          </mxGeometry>
        </mxCell>
        <mxCell id="Tz1P8lq4zvduLCiZaMkm-79" value="&lt;font style=&quot;font-size: 9px;&quot;&gt;14 : click(continueButton)&lt;/font&gt;" style="html=1;verticalAlign=bottom;endArrow=block;edgeStyle=elbowEdgeStyle;elbow=vertical;curved=0;rounded=0;" edge="1" parent="Tz1P8lq4zvduLCiZaMkm-1">
          <mxGeometry x="-0.0016" relative="1" as="geometry">
            <mxPoint x="-165" y="520" as="sourcePoint" />
            <Array as="points">
              <mxPoint x="-45" y="520" />
            </Array>
            <mxPoint x="45" y="520" as="targetPoint" />
            <mxPoint as="offset" />
          </mxGeometry>
        </mxCell>
        <mxCell id="Tz1P8lq4zvduLCiZaMkm-80" value="" style="html=1;points=[];perimeter=orthogonalPerimeter;outlineConnect=0;targetShapes=umlLifeline;portConstraint=eastwest;newEdgeStyle={&quot;edgeStyle&quot;:&quot;elbowEdgeStyle&quot;,&quot;elbow&quot;:&quot;vertical&quot;,&quot;curved&quot;:0,&quot;rounded&quot;:0};" vertex="1" parent="Tz1P8lq4zvduLCiZaMkm-1">
          <mxGeometry x="45" y="520" width="10" height="20" as="geometry" />
        </mxCell>
        <mxCell id="Tz1P8lq4zvduLCiZaMkm-17" value="&lt;font style=&quot;font-size: 9px;&quot;&gt;Educator&lt;/font&gt;" style="shape=umlActor;verticalLabelPosition=bottom;verticalAlign=top;html=1;outlineConnect=0;" vertex="1" parent="1">
          <mxGeometry x="-100" y="40" width="20" height="40" as="geometry" />
        </mxCell>
        <mxCell id="Tz1P8lq4zvduLCiZaMkm-18" value="" style="endArrow=none;dashed=1;html=1;rounded=0;" edge="1" parent="1" source="Tz1P8lq4zvduLCiZaMkm-19">
          <mxGeometry width="50" height="50" relative="1" as="geometry">
            <mxPoint x="-90" y="350" as="sourcePoint" />
            <mxPoint x="-90" y="100" as="targetPoint" />
          </mxGeometry>
        </mxCell>
        <mxCell id="Tz1P8lq4zvduLCiZaMkm-20" value="&lt;font style=&quot;font-size: 9px;&quot;&gt;1 : request(tournamentId)&lt;/font&gt;" style="html=1;verticalAlign=bottom;endArrow=block;edgeStyle=elbowEdgeStyle;elbow=horizontal;curved=0;rounded=0;" edge="1" parent="1" source="Tz1P8lq4zvduLCiZaMkm-19" target="Tz1P8lq4zvduLCiZaMkm-2">
          <mxGeometry relative="1" as="geometry">
            <mxPoint x="-50" y="110" as="sourcePoint" />
            <Array as="points">
              <mxPoint x="30" y="110" />
            </Array>
            <mxPoint x="115" y="110" as="targetPoint" />
          </mxGeometry>
        </mxCell>
        <mxCell id="Tz1P8lq4zvduLCiZaMkm-21" value="&lt;font style=&quot;font-size: 9px;&quot;&gt;2 : showPage(tournamentPage)&lt;/font&gt;" style="html=1;verticalAlign=bottom;endArrow=openThin;dashed=1;endSize=8;edgeStyle=elbowEdgeStyle;elbow=vertical;curved=0;rounded=0;endFill=0;" edge="1" parent="1" source="Tz1P8lq4zvduLCiZaMkm-2" target="Tz1P8lq4zvduLCiZaMkm-19">
          <mxGeometry relative="1" as="geometry">
            <mxPoint x="-50" y="140" as="targetPoint" />
            <Array as="points">
              <mxPoint x="5" y="140" />
            </Array>
            <mxPoint x="80" y="140" as="sourcePoint" />
          </mxGeometry>
        </mxCell>
        <mxCell id="Tz1P8lq4zvduLCiZaMkm-33" value="" style="html=1;points=[[0,0,0,0,5],[0,1,0,0,-5],[1,0,0,0,5],[1,1,0,0,-5]];perimeter=orthogonalPerimeter;outlineConnect=0;targetShapes=umlLifeline;portConstraint=eastwest;newEdgeStyle={&quot;curved&quot;:0,&quot;rounded&quot;:0};" vertex="1" parent="1">
          <mxGeometry x="-90" y="185" width="10" height="25" as="geometry" />
        </mxCell>
        <mxCell id="Tz1P8lq4zvduLCiZaMkm-34" value="&lt;font size=&quot;1&quot;&gt;3 : manualCheckIfAllBattleClosed()&lt;br&gt;&lt;span style=&quot;white-space: pre;&quot;&gt;&#x9;&lt;/span&gt;-&amp;gt;result&lt;br&gt;&lt;/font&gt;" style="html=1;align=left;spacingLeft=2;endArrow=block;rounded=0;edgeStyle=orthogonalEdgeStyle;curved=0;rounded=0;" edge="1" parent="1" target="Tz1P8lq4zvduLCiZaMkm-33">
          <mxGeometry relative="1" as="geometry">
            <mxPoint x="-85" y="170" as="sourcePoint" />
            <Array as="points">
              <mxPoint x="-60" y="170" />
              <mxPoint x="-60" y="185" />
            </Array>
          </mxGeometry>
        </mxCell>
        <mxCell id="Tz1P8lq4zvduLCiZaMkm-35" value="&lt;b&gt;opt&lt;/b&gt;" style="shape=umlFrame;whiteSpace=wrap;html=1;pointerEvents=0;width=70;height=20;" vertex="1" parent="1">
          <mxGeometry x="-220" y="160" width="400" height="170" as="geometry" />
        </mxCell>
        <mxCell id="Tz1P8lq4zvduLCiZaMkm-62" value="&lt;p style=&quot;line-height: 120%; font-size: 11px;&quot;&gt;&lt;font style=&quot;font-size: 11px;&quot;&gt;&lt;b&gt;alt&lt;/b&gt;: result == true &amp;amp;&amp;amp; Educator == tournamentCreator&lt;/font&gt;&lt;/p&gt;" style="shape=umlFrame;whiteSpace=wrap;html=1;pointerEvents=0;width=110;height=40;verticalAlign=middle;horizontal=1;labelPosition=center;verticalLabelPosition=middle;align=center;" vertex="1" parent="1">
          <mxGeometry x="-210" y="220" width="380" height="100" as="geometry" />
        </mxCell>
        <mxCell id="Tz1P8lq4zvduLCiZaMkm-63" value="&lt;font style=&quot;font-size: 9px;&quot;&gt;4 : forbidBattleCreation(tournamentId)&lt;/font&gt;" style="html=1;verticalAlign=bottom;endArrow=block;edgeStyle=elbowEdgeStyle;elbow=horizontal;curved=0;rounded=0;" edge="1" parent="1">
          <mxGeometry relative="1" as="geometry">
            <mxPoint x="-85" y="240" as="sourcePoint" />
            <Array as="points">
              <mxPoint x="30" y="240" />
            </Array>
            <mxPoint x="125" y="240" as="targetPoint" />
          </mxGeometry>
        </mxCell>
        <mxCell id="Tz1P8lq4zvduLCiZaMkm-66" value="&lt;font style=&quot;font-size: 9px;&quot;&gt;5 : sendMessage(confirmation)&lt;/font&gt;" style="html=1;verticalAlign=bottom;endArrow=openThin;dashed=1;endSize=8;edgeStyle=elbowEdgeStyle;elbow=horizontal;curved=0;rounded=0;endFill=0;" edge="1" parent="1" source="Tz1P8lq4zvduLCiZaMkm-65" target="Tz1P8lq4zvduLCiZaMkm-19">
          <mxGeometry relative="1" as="geometry">
            <mxPoint x="-85" y="260.0000000000001" as="targetPoint" />
            <Array as="points">
              <mxPoint x="5" y="260" />
            </Array>
            <mxPoint x="125" y="260.0000000000001" as="sourcePoint" />
          </mxGeometry>
        </mxCell>
        <mxCell id="Tz1P8lq4zvduLCiZaMkm-67" value="&lt;font style=&quot;font-size: 9px;&quot;&gt;7 : showPage(tournamentPage)&lt;/font&gt;" style="html=1;verticalAlign=bottom;endArrow=openThin;dashed=1;endSize=8;edgeStyle=elbowEdgeStyle;elbow=vertical;curved=0;rounded=0;endFill=0;" edge="1" parent="1" source="Tz1P8lq4zvduLCiZaMkm-68">
          <mxGeometry relative="1" as="geometry">
            <mxPoint x="-85" y="310" as="targetPoint" />
            <Array as="points">
              <mxPoint x="15" y="310" />
            </Array>
            <mxPoint x="130" y="300" as="sourcePoint" />
          </mxGeometry>
        </mxCell>
        <mxCell id="Tz1P8lq4zvduLCiZaMkm-68" value="" style="html=1;points=[];perimeter=orthogonalPerimeter;outlineConnect=0;targetShapes=umlLifeline;portConstraint=eastwest;newEdgeStyle={&quot;edgeStyle&quot;:&quot;elbowEdgeStyle&quot;,&quot;elbow&quot;:&quot;vertical&quot;,&quot;curved&quot;:0,&quot;rounded&quot;:0};" vertex="1" parent="1">
          <mxGeometry x="125" y="290" width="10" height="20" as="geometry" />
        </mxCell>
        <mxCell id="Tz1P8lq4zvduLCiZaMkm-69" value="&lt;font style=&quot;font-size: 9px;&quot;&gt;6 : click(continueButton)&lt;/font&gt;" style="html=1;verticalAlign=bottom;endArrow=block;edgeStyle=elbowEdgeStyle;elbow=vertical;curved=0;rounded=0;" edge="1" parent="1" target="Tz1P8lq4zvduLCiZaMkm-68">
          <mxGeometry x="-0.0016" relative="1" as="geometry">
            <mxPoint x="-85" y="290" as="sourcePoint" />
            <Array as="points">
              <mxPoint x="35" y="290" />
            </Array>
            <mxPoint x="130" y="300" as="targetPoint" />
            <mxPoint as="offset" />
          </mxGeometry>
        </mxCell>
        <mxCell id="Tz1P8lq4zvduLCiZaMkm-70" value="[then]" style="text;html=1;strokeColor=none;fillColor=none;align=center;verticalAlign=middle;whiteSpace=wrap;rounded=0;fontSize=10;" vertex="1" parent="1">
          <mxGeometry x="-180" y="265" width="35" height="10" as="geometry" />
        </mxCell>
        <mxCell id="Tz1P8lq4zvduLCiZaMkm-23" value="&lt;p style=&quot;line-height: 120%; font-size: 11px;&quot;&gt;&lt;font style=&quot;font-size: 11px;&quot;&gt;&lt;b&gt;alt&lt;/b&gt;: result == true&lt;/font&gt;&lt;/p&gt;" style="shape=umlFrame;whiteSpace=wrap;html=1;pointerEvents=0;width=100;height=20;verticalAlign=middle;horizontal=1;labelPosition=center;verticalLabelPosition=middle;align=center;" vertex="1" parent="1">
          <mxGeometry x="-210" y="415" width="390" height="195" as="geometry" />
        </mxCell>
        <mxCell id="Tz1P8lq4zvduLCiZaMkm-32" value="&lt;font style=&quot;font-size: 9px;&quot;&gt;10 : sendMessage(confirmation)&lt;/font&gt;" style="html=1;verticalAlign=bottom;endArrow=openThin;dashed=1;endSize=8;edgeStyle=elbowEdgeStyle;elbow=horizontal;curved=0;rounded=0;endFill=0;" edge="1" parent="1">
          <mxGeometry relative="1" as="geometry">
            <mxPoint x="-85" y="440.00000000000006" as="targetPoint" />
            <Array as="points">
              <mxPoint x="5" y="440" />
            </Array>
            <mxPoint x="125" y="440.00000000000006" as="sourcePoint" />
          </mxGeometry>
        </mxCell>
        <mxCell id="Tz1P8lq4zvduLCiZaMkm-71" value="&lt;font style=&quot;font-size: 9px;&quot;&gt;12 : showPage(allTournamentsCreatedPage)&lt;/font&gt;" style="html=1;verticalAlign=bottom;endArrow=openThin;dashed=1;endSize=8;edgeStyle=elbowEdgeStyle;elbow=vertical;curved=0;rounded=0;endFill=0;" edge="1" parent="1">
          <mxGeometry relative="1" as="geometry">
            <mxPoint x="-85" y="480" as="targetPoint" />
            <Array as="points">
              <mxPoint x="15" y="480" />
            </Array>
            <mxPoint x="125" y="480" as="sourcePoint" />
          </mxGeometry>
        </mxCell>
        <mxCell id="Tz1P8lq4zvduLCiZaMkm-72" value="&lt;font style=&quot;font-size: 9px;&quot;&gt;11 : click(continueButton)&lt;/font&gt;" style="html=1;verticalAlign=bottom;endArrow=block;edgeStyle=elbowEdgeStyle;elbow=vertical;curved=0;rounded=0;" edge="1" parent="1">
          <mxGeometry x="-0.0016" relative="1" as="geometry">
            <mxPoint x="-85" y="460" as="sourcePoint" />
            <Array as="points">
              <mxPoint x="35" y="460" />
            </Array>
            <mxPoint x="125" y="460" as="targetPoint" />
            <mxPoint as="offset" />
          </mxGeometry>
        </mxCell>
        <mxCell id="Tz1P8lq4zvduLCiZaMkm-73" value="" style="html=1;points=[];perimeter=orthogonalPerimeter;outlineConnect=0;targetShapes=umlLifeline;portConstraint=eastwest;newEdgeStyle={&quot;edgeStyle&quot;:&quot;elbowEdgeStyle&quot;,&quot;elbow&quot;:&quot;vertical&quot;,&quot;curved&quot;:0,&quot;rounded&quot;:0};" vertex="1" parent="1">
          <mxGeometry x="125" y="460" width="10" height="20" as="geometry" />
        </mxCell>
        <mxCell id="Tz1P8lq4zvduLCiZaMkm-74" value="" style="endArrow=none;dashed=1;html=1;rounded=0;exitX=0.001;exitY=0.409;exitDx=0;exitDy=0;exitPerimeter=0;strokeWidth=2;" edge="1" parent="1">
          <mxGeometry width="50" height="50" relative="1" as="geometry">
            <mxPoint x="-210" y="510.75" as="sourcePoint" />
            <mxPoint x="180" y="510" as="targetPoint" />
          </mxGeometry>
        </mxCell>
        <mxCell id="Tz1P8lq4zvduLCiZaMkm-24" value="[then]" style="text;html=1;strokeColor=none;fillColor=none;align=center;verticalAlign=middle;whiteSpace=wrap;rounded=0;fontSize=10;" vertex="1" parent="1">
          <mxGeometry x="-180" y="450" width="35" height="10" as="geometry" />
        </mxCell>
        <mxCell id="Tz1P8lq4zvduLCiZaMkm-9" value="[else]" style="text;html=1;strokeColor=none;fillColor=none;align=center;verticalAlign=middle;whiteSpace=wrap;rounded=0;fontSize=10;" vertex="1" parent="1">
          <mxGeometry x="-180" y="530" width="35" height="10" as="geometry" />
        </mxCell>
        <mxCell id="Tz1P8lq4zvduLCiZaMkm-77" value="&lt;font style=&quot;font-size: 9px;&quot;&gt;13 : sendMessage(error)&lt;/font&gt;" style="html=1;verticalAlign=bottom;endArrow=openThin;dashed=1;endSize=8;edgeStyle=elbowEdgeStyle;elbow=horizontal;curved=0;rounded=0;endFill=0;" edge="1" parent="1">
          <mxGeometry relative="1" as="geometry">
            <mxPoint x="-85" y="540" as="targetPoint" />
            <Array as="points">
              <mxPoint x="5" y="540" />
            </Array>
            <mxPoint x="125" y="540" as="sourcePoint" />
            <mxPoint as="offset" />
          </mxGeometry>
        </mxCell>
        <mxCell id="Tz1P8lq4zvduLCiZaMkm-81" value="" style="endArrow=none;dashed=1;html=1;rounded=0;" edge="1" parent="1">
          <mxGeometry width="50" height="50" relative="1" as="geometry">
            <mxPoint x="-90" y="610" as="sourcePoint" />
            <mxPoint x="-90" y="600" as="targetPoint" />
          </mxGeometry>
        </mxCell>
      </root>
    </mxGraphModel>
  </diagram>
</mxfile>
